<svg xmlns="http://www.w3.org/2000/svg" width="341" height="222.301" viewBox="0 0 341 222.301">
  <g id="background" transform="translate(0 0)" opacity="0.24">
    <path id="Path_20" data-name="Path 20" d="M598.9,419.272h-7.326V349.049l16.65-.328Z" transform="translate(-348.427 -207.48)" fill="#ffb8b8"/>
    <path id="Path_21" data-name="Path 21" d="M681.915,419.272h7.326V349.049l-16.65-.328Z" transform="translate(-396.146 -207.48)" fill="#ffb8b8"/>
    <path id="Path_22" data-name="Path 22" d="M754.868,694.753l-15.587-.141a5.125,5.125,0,0,1-4.339-.916A4.967,4.967,0,0,1,733,689.765h0a4.987,4.987,0,0,1,2.87-4.5l3.556-1.685L750.98,675.8l8.325,2.3,1.595,7.07A8.069,8.069,0,0,1,754.868,694.753Z" transform="translate(-507.834 -473.194)" fill="#2f2e41"/>
    <path id="Path_23" data-name="Path 23" d="M856.95,694.538l-15.587-.141a5.125,5.125,0,0,1-4.339-.916,4.967,4.967,0,0,1-1.943-3.931h0a4.987,4.987,0,0,1,2.87-4.5l3.556-1.686,11.556-7.783,8.325,2.3,1.594,7.07A8.068,8.068,0,0,1,856.95,694.538Z" transform="translate(-567.959 -473.066)" fill="#2f2e41"/>
    <path id="Path_24" data-name="Path 24" d="M822.949,481.7,800,479.679l-3.022-26.529-6.768,25.668-23.2-2.041c.855-15.718,2.7-28.829,6.993-35.439l48.617-8.532Z" transform="translate(-527.864 -328.619)" fill="#2f2e41"/>
    <ellipse id="Ellipse_6" data-name="Ellipse 6" cx="12.401" cy="12.221" rx="12.401" ry="12.221" transform="translate(259.488 5.778)" fill="#ffb8b8"/>
    <path id="Path_25" data-name="Path 25" d="M839.692,255.928,818.047,253.3c2.754-5.779,3.995-11.174,2-15.751H836.7C834.121,242.078,836.423,248.787,839.692,255.928Z" transform="translate(-557.927 -212.449)" fill="#ffb8b8"/>
    <path id="Path_26" data-name="Path 26" d="M830.729,332.234c-15.23,11-31.852,14.759-49.949,10.829,10.98-24.7,9.412-49.051,0-73.176l17.316-7.219c4.855,4.667,10.424,4.769,16.65.656l16.983,3.61C828.622,291,827.58,313.355,830.729,332.234Z" transform="translate(-535.977 -227.392)" fill="#3f3d56"/>
    <path id="Path_27" data-name="Path 27" d="M818.606,182.9l-2.094-.826s4.379-4.75,10.471-4.338l-1.714-1.859s4.188-1.652,8,2.685a36.636,36.636,0,0,1,5.761,7.979h2.242l-.936,2.031,3.276,2.031-3.363-.365a11.082,11.082,0,0,1-.318,5.26l.09,1.605s-3.9-5.943-3.9-6.769V192.4s-2.094-1.859-2.094-3.1l-1.142,1.446-.571-2.272-7.044,2.272,1.142-1.859-4.379.62,1.713-2.272s-4.95,2.685-5.14,4.957-2.665,5.163-2.665,5.163L814.8,195.3S813.085,186,818.606,182.9Z" transform="translate(-555.865 -175.573)" fill="#2f2e41"/>
    <path id="Path_28" data-name="Path 28" d="M797.788,473.584H722.572a2.86,2.86,0,0,1-2.877-2.835V459.408a2.86,2.86,0,0,1,2.877-2.835h75.216a2.86,2.86,0,0,1,2.877,2.835v11.341a2.86,2.86,0,0,1-2.877,2.835Z" transform="translate(-499.999 -342.761)" fill="#6c63ff"/>
    <path id="Path_40" data-name="Path 40" d="M750.552,471.627a2.409,2.409,0,1,0,0,4.817H803.2a2.409,2.409,0,1,0,.08-4.817H750.552Z" transform="translate(-516.734 -351.717)" fill="#fff"/>
    <path id="Path_29" data-name="Path 29" d="M782.123,387.636l3.823,6.716a5.887,5.887,0,0,1,.291,5.252,6.026,6.026,0,0,1-4.041,3.436h0a6.122,6.122,0,0,1-5.273-1.087,5.931,5.931,0,0,1-2.3-4.8l.18-9.191c-2.872-16.337-5.2-31.806-4.662-42.659h13.32l-2.664,12.469Z" transform="translate(-529.661 -276.559)" fill="#ffb8b8"/>
    <path id="Path_30" data-name="Path 30" d="M887.99,383.01l-2.8,4.6A5.437,5.437,0,0,1,876.2,388h0a5.265,5.265,0,0,1,1.227-7.45l4.9-3.448,6.993-28.549-4.329-11.813,11.988-1.969C902.609,347.592,896.94,364.681,887.99,383.01Z" transform="translate(-591.573 -270.293)" fill="#ffb8b8"/>
    <path id="Path_31" data-name="Path 31" d="M784.655,305.03l-17.649-.984,1.213-18.635a11.776,11.776,0,0,1,8.87-11.626l2.238-.584Z" transform="translate(-527.864 -233.659)" fill="#3f3d56"/>
    <path id="Path_32" data-name="Path 32" d="M908.091,297.58l-16.317,3.938V270.672l.673-.043a11.178,11.178,0,0,1,11.676,8.7Z" transform="translate(-601.351 -232.115)" fill="#3f3d56"/>
    <rect id="Rectangle_10" data-name="Rectangle 10" width="249.115" height="0.81" transform="translate(91.885 221.49)" fill="#e6e6e6"/>
    <path id="Path_33" data-name="Path 33" d="M211.739,559.419a86.287,86.287,0,0,0,4.145,24.172c.058.182.118.36.179.542h15.469c-.016-.163-.033-.344-.049-.542-1.031-11.685-6.978-82.8.132-94.963C230.993,489.615,210.54,522.291,211.739,559.419Z" transform="translate(-200.791 -361.833)" fill="#e6e6e6"/>
    <path id="Path_34" data-name="Path 34" d="M197.283,647.316c.129.182.264.363.4.542h11.6c-.088-.155-.19-.336-.308-.542-1.917-3.41-7.591-13.6-12.859-24.172-5.661-11.357-10.854-23.144-10.416-27.411C185.571,596.7,181.655,626.028,197.283,647.316Z" transform="translate(-185.174 -425.558)" fill="#e6e6e6"/>
    <path id="Path_35" data-name="Path 35" d="M382.116,289.822H255.934a2.86,2.86,0,0,1-2.877-2.835v-69.26a2.86,2.86,0,0,1,2.877-2.835H382.116a2.86,2.86,0,0,1,2.877,2.835v69.26a2.86,2.86,0,0,1-2.877,2.835Z" transform="translate(-225.156 -198.967)" fill="#6c63ff"/>
    <path id="Path_36" data-name="Path 36" d="M382.38,421H252.91a2.043,2.043,0,0,1-2.055-2.025v-202.5a2.043,2.043,0,0,1,2.055-2.025H382.38a2.043,2.043,0,0,1,2.055,2.025v202.5A2.043,2.043,0,0,1,382.38,421ZM252.91,215.261a1.226,1.226,0,0,0-1.233,1.215v202.5a1.226,1.226,0,0,0,1.233,1.215H382.38a1.226,1.226,0,0,0,1.233-1.215v-202.5a1.226,1.226,0,0,0-1.233-1.215Z" transform="translate(-223.859 -198.705)" fill="#e6e6e6"/>
    <ellipse id="Ellipse_7" data-name="Ellipse 7" cx="4.521" cy="4.455" rx="4.521" ry="4.455" transform="translate(39.82 119.612)" fill="#e6e6e6"/>
    <path id="Path_37" data-name="Path 37" d="M413.15,477.9H337.934a2.86,2.86,0,0,1-2.877-2.835V463.727a2.86,2.86,0,0,1,2.877-2.835H413.15a2.86,2.86,0,0,1,2.877,2.835v11.341A2.86,2.86,0,0,1,413.15,477.9Z" transform="translate(-273.453 -345.33)" fill="#e6e6e6"/>
    <path id="Path_38" data-name="Path 38" d="M415.438,502.7h-80.97a.405.405,0,1,1,0-.81h80.97a.405.405,0,1,1,0,.81Z" transform="translate(-272.864 -369.724)" fill="#3f3d56"/>
    <ellipse id="Ellipse_8" data-name="Ellipse 8" cx="4.521" cy="4.455" rx="4.521" ry="4.455" transform="translate(39.82 146.344)" fill="#e6e6e6"/>
    <path id="Path_39" data-name="Path 39" d="M413.15,543.9H337.934a2.86,2.86,0,0,1-2.877-2.835V529.727a2.86,2.86,0,0,1,2.877-2.835H413.15a2.86,2.86,0,0,1,2.877,2.835v11.341A2.86,2.86,0,0,1,413.15,543.9Z" transform="translate(-273.453 -384.599)" fill="#e6e6e6"/>
    <path id="Path_40-2" data-name="Path 40" d="M415.438,568.7h-80.97a.405.405,0,1,1,0-.81h80.97a.405.405,0,1,1,0,.81Z" transform="translate(-272.864 -408.993)" fill="#3f3d56"/>
    <ellipse id="Ellipse_9" data-name="Ellipse 9" cx="4.521" cy="4.455" rx="4.521" ry="4.455" transform="translate(39.82 173.075)" fill="#e6e6e6"/>
    <path id="Path_41" data-name="Path 41" d="M369.171,609.9H337.934a2.86,2.86,0,0,1-2.877-2.835V595.727a2.86,2.86,0,0,1,2.877-2.835h31.237a2.86,2.86,0,0,1,2.877,2.835v11.341A2.86,2.86,0,0,1,369.171,609.9Z" transform="translate(-273.453 -423.867)" fill="#e6e6e6"/>
    <path id="Path_42" data-name="Path 42" d="M371.459,634.7H334.468a.405.405,0,1,1,0-.81h36.991a.405.405,0,1,1,0,.81Z" transform="translate(-272.864 -448.261)" fill="#3f3d56"/>
    <path id="Path_43" data-name="Path 43" d="M476.171,609.9H444.934a2.86,2.86,0,0,1-2.877-2.835V595.727a2.86,2.86,0,0,1,2.877-2.835h31.237a2.86,2.86,0,0,1,2.877,2.835v11.341A2.86,2.86,0,0,1,476.171,609.9Z" transform="translate(-336.474 -423.867)" fill="#e6e6e6"/>
    <path id="Path_44" data-name="Path 44" d="M478.459,634.7H441.468a.405.405,0,1,1,0-.81h36.991a.405.405,0,1,1,0,.81Z" transform="translate(-335.885 -448.261)" fill="#3f3d56"/>
    <path id="Path_40-3" data-name="Path 40" d="M289.914,268.445a2.409,2.409,0,1,0,0,4.817h98.679a2.409,2.409,0,1,0,.08-4.817H289.914Z" transform="translate(-245.425 -230.83)" fill="#fff"/>
    <path id="Path_40-4" data-name="Path 40" d="M289.914,301.446a2.409,2.409,0,1,0,0,4.817h98.679a2.409,2.409,0,1,0,.08-4.817H289.914Z" transform="translate(-245.425 -250.464)" fill="#fff"/>
    <path id="Path_40-5" data-name="Path 40" d="M289.914,334.446a2.409,2.409,0,1,0,0,4.817h98.679a2.409,2.409,0,1,0,.08-4.817H289.914Z" transform="translate(-245.425 -270.098)" fill="#fff"/>
    <path id="Path_45" data-name="Path 45" d="M513.844,682.59l-1.034-1.019a.242.242,0,0,0-.17-.069h-.5a.24.24,0,0,0-.222.146.234.234,0,0,0,.052.258l.573.564h-4.572a.405.405,0,1,0,0,.81h4.572l-.514.506a.268.268,0,0,0-.06.295.275.275,0,0,0,.254.167h.406a.277.277,0,0,0,.194-.079l1.024-1.009a.4.4,0,0,0,0-.569Z" transform="translate(-375.053 -476.587)" fill="#6c63ff"/>
    <path id="Path_46" data-name="Path 46" d="M506.633,681.853a6.481,6.481,0,1,1,6.576-6.48A6.529,6.529,0,0,1,506.633,681.853Zm0-12.151a5.671,5.671,0,1,0,5.754,5.67A5.713,5.713,0,0,0,506.633,669.7Z" transform="translate(-370.635 -469.085)" fill="#3f3d56"/>
  </g>
</svg>
