<svg xmlns="http://www.w3.org/2000/svg" width="302.769" height="181" viewBox="0 0 302.769 181">
  <g id="Group_1" data-name="Group 1" transform="translate(0 0)">
    <path id="Path_1" data-name="Path 1" d="M820.392,595.623a15.645,15.645,0,0,1-5.613-13.487c.617-5.037,4.442-9.668,9.4-10.737s10.616,1.891,12.123,6.737c.829-9.343,1.785-19.077,6.752-27.033a28.629,28.629,0,0,1,20.731-13.281,25.687,25.687,0,0,1,22.6,9.225,23.313,23.313,0,0,1,2.867,24c-2.717,5.636-7.722,9.83-12.966,13.242a83.679,83.679,0,0,1-57.232,12.52Z" transform="translate(-588.585 -416.656)" fill="#f2f2f2"/>
    <path id="Path_2" data-name="Path 2" d="M920.6,545.65a138.075,138.075,0,0,0-40.57,54.859c-.387.948,1.153,1.361,1.536.423a136.539,136.539,0,0,1,40.161-54.157c.795-.647-.338-1.768-1.126-1.126Z" transform="translate(-631.154 -421.73)" fill="#fff"/>
    <path id="Path_3" data-name="Path 3" d="M262.466,552.518c5.324-4.5,8.558-11.606,7.71-18.524s-6.1-13.279-12.915-14.748-14.581,2.6-16.65,9.254c-1.139-12.832-2.451-26.2-9.274-37.13a39.323,39.323,0,0,0-28.473-18.242c-11.6-1.267-23.805,3.517-31.037,12.67s-9,22.459-3.938,32.967c3.731,7.741,10.606,13.5,17.808,18.189a114.934,114.934,0,0,0,78.608,17.2" transform="translate(-165 -374.441)" fill="#f2f2f2"/>
    <path id="Path_4" data-name="Path 4" d="M213.973,483.879A188.046,188.046,0,0,1,240.179,509.9,188.6,188.6,0,0,1,269.7,559.228c.531,1.3-1.583,1.869-2.109.581a186.657,186.657,0,0,0-17.056-32.27,187.374,187.374,0,0,0-38.106-42.114c-1.092-.889.464-2.428,1.547-1.547Z" transform="translate(-195.679 -381.41)" fill="#fff"/>
    <path id="Path_5" data-name="Path 5" d="M551.524,370.549H424.5V240.219a50.344,50.344,0,0,1,50.288-50.288h26.449a50.344,50.344,0,0,1,50.288,50.288Z" transform="translate(-334.191 -189.931)" fill="#f2f2f2"/>
    <path id="Path_6" data-name="Path 6" d="M525.075,370.551H424.5V240.221a49.9,49.9,0,0,1,9.6-29.562c.231-.315.461-.626.7-.933a50.276,50.276,0,0,1,10.7-10.388c.23-.167.46-.331.694-.5a50.168,50.168,0,0,1,10.953-5.728c.23-.087.464-.175.7-.258a50.12,50.12,0,0,1,10.826-2.553c.229-.031.464-.056.7-.08a50.909,50.909,0,0,1,10.825,0c.234.024.469.049.7.081a50.111,50.111,0,0,1,10.823,2.553c.234.084.468.171.7.258a50.044,50.044,0,0,1,10.825,5.643c.234.161.468.325.7.489a50.807,50.807,0,0,1,6.4,5.416,50.216,50.216,0,0,1,4.428,5.064c.237.306.467.617.7.932a49.9,49.9,0,0,1,9.6,29.562Z" transform="translate(-334.191 -189.933)" fill="#ccc"/>
    <circle id="Ellipse_1" data-name="Ellipse 1" cx="5.568" cy="5.568" r="5.568" transform="translate(177.137 111.19)" fill="#6c63ff"/>
    <path id="Path_7" data-name="Path 7" d="M582.8,476.952h-4.267l-2.03-16.457h6.3Z" transform="translate(-375.876 -300.238)" fill="#ffb8b8"/>
    <path id="Path_8" data-name="Path 8" d="M563.876,504.28H572.1v5.181H558.7a5.181,5.181,0,0,1,5.181-5.181Z" transform="translate(-364.263 -328.785)" fill="#2f2e41"/>
    <path id="Path_9" data-name="Path 9" d="M643.8,476.952h-4.267l-2.03-16.457h6.3Z" transform="translate(-415.647 -300.238)" fill="#ffb8b8"/>
    <path id="Path_10" data-name="Path 10" d="M624.876,504.28H633.1v5.181H619.7a5.181,5.181,0,0,1,5.181-5.181Z" transform="translate(-404.035 -328.785)" fill="#2f2e41"/>
    <path id="Path_11" data-name="Path 11" d="M696.889,443.378a3.739,3.739,0,0,1,1.57-5.514l14.5-39.975,7.137,3.895-16.56,38.2a3.759,3.759,0,0,1-6.65,3.392Z" transform="translate(-511.366 -325.518)" fill="#ffb8b8"/>
    <path id="Path_12" data-name="Path 12" d="M804.033,460.388a3.739,3.739,0,0,1-1.007-5.644l-4.493-42.287,8.122.371,1.867,41.595a3.759,3.759,0,0,1-4.489,5.965Z" transform="translate(-578.057 -335.016)" fill="#ffb8b8"/>
    <circle id="Ellipse_2" data-name="Ellipse 2" cx="8.547" cy="8.547" r="8.547" transform="translate(204.472 47.873)" fill="#ffb8b8"/>
    <path id="Path_13" data-name="Path 13" d="M765.9,433.308H740.133l.031-.2c.046-.3,4.593-30.082,1.24-39.825a4.111,4.111,0,0,1,2.112-5.075h0c4.793-2.257,13.993-5.036,21.758,1.708a9.826,9.826,0,0,1,3.292,8.142Z" transform="translate(-539.981 -317.553)" fill="#6c63ff"/>
    <path id="Path_14" data-name="Path 14" d="M732.619,412.781l-11.6-2.354,5.438-12.887a4.871,4.871,0,0,1,9.433,2.435Z" transform="translate(-527.518 -322.907)" fill="#6c63ff"/>
    <path id="Path_15" data-name="Path 15" d="M795.564,418.842l-.7-15.988c-.529-3.005,1.192-5.847,3.838-6.311s5.231,1.622,5.762,4.649l2.622,14.939Z" transform="translate(-575.604 -324.597)" fill="#6c63ff"/>
    <path id="Path_16" data-name="Path 16" d="M762.444,517.049c4.146,15.792,4.6,35.869,3.48,57.77l-5.568-.7-10.092-41.761L744.7,574.819l-6.264-.348c-1.871-22.979-3.693-42.706-.7-55.682Z" transform="translate(-537.38 -403.208)" fill="#2f2e41"/>
    <path id="Path_17" data-name="Path 17" d="M763.512,335.266a2.761,2.761,0,0,1-4.764-1.534,2.8,2.8,0,0,1,0-.541c.107-1.028.7-1.961.559-3.046a1.6,1.6,0,0,0-.292-.748c-1.271-1.7-4.254.761-5.453-.779-.735-.944.129-2.432-.435-3.487-.745-1.393-2.951-.706-4.334-1.469-1.539-.849-1.447-3.21-.434-4.647a7.31,7.31,0,0,1,5.542-2.821,14.864,14.864,0,0,1,6.262,1.222,12.513,12.513,0,0,1,5.916,4.1,10.014,10.014,0,0,1,1.012,8.527C766.577,331.77,764.814,333.879,763.512,335.266Z" transform="translate(-544.861 -272.239)" fill="#2f2e41"/>
    <path id="Path_18" data-name="Path 18" d="M522.844,708.021H265.91a.414.414,0,0,1,0-.829H522.844a.414.414,0,0,1,0,.829Z" transform="translate(-230.522 -527.18)" fill="#3f3d56"/>
    <path id="Path_19" data-name="Path 19" d="M545,402.878H499.762a2.25,2.25,0,0,1-2.262-2.233V299.663a2.25,2.25,0,0,1,2.262-2.233H545a2.25,2.25,0,0,1,2.262,2.233V400.645A2.25,2.25,0,0,1,545,402.878Z" transform="translate(-381.787 -260.019)" fill="#fff"/>
    <rect id="Rectangle_4" data-name="Rectangle 4" width="49.766" height="0.696" transform="translate(115.713 70.086)" fill="#ccc"/>
    <rect id="Rectangle_5" data-name="Rectangle 5" width="49.766" height="0.696" transform="translate(115.887 109.798)" fill="#ccc"/>
    <rect id="Rectangle_6" data-name="Rectangle 6" width="0.696" height="105.795" transform="translate(131.374 37.411)" fill="#ccc"/>
    <rect id="Rectangle_7" data-name="Rectangle 7" width="0.696" height="105.795" transform="translate(148.774 37.411)" fill="#ccc"/>
  </g>
</svg>
